<mxfile host="app.diagrams.net" modified="2022-07-04T08:45:30.288Z" agent="5.0 (Windows NT 10.0; Win64; x64) AppleWebKit/537.36 (KHTML, like Gecko) Chrome/103.0.5060.66 Safari/537.36 Edg/103.0.1264.44" etag="UJeWPq06F5N-QGokI1Ji" version="20.0.1" type="github">
  <diagram id="I3b3o-8wgbW3kIbqApCO" name="Page-1">
    <mxGraphModel dx="782" dy="478" grid="1" gridSize="10" guides="1" tooltips="1" connect="1" arrows="1" fold="1" page="1" pageScale="1" pageWidth="827" pageHeight="1169" math="0" shadow="0">
      <root>
        <mxCell id="0" />
        <mxCell id="1" parent="0" />
        <mxCell id="_eAnaMVm6EWIXQmlmc8g-3" value="" style="edgeStyle=orthogonalEdgeStyle;rounded=0;orthogonalLoop=1;jettySize=auto;html=1;" edge="1" parent="1" source="_eAnaMVm6EWIXQmlmc8g-1" target="_eAnaMVm6EWIXQmlmc8g-2">
          <mxGeometry relative="1" as="geometry" />
        </mxCell>
        <mxCell id="_eAnaMVm6EWIXQmlmc8g-1" value="p=1&lt;br&gt;s=0" style="ellipse;whiteSpace=wrap;html=1;" vertex="1" parent="1">
          <mxGeometry x="380" width="120" height="50" as="geometry" />
        </mxCell>
        <mxCell id="_eAnaMVm6EWIXQmlmc8g-2" value="发送请求，获取书名&lt;br&gt;" style="whiteSpace=wrap;html=1;" vertex="1" parent="1">
          <mxGeometry x="380" y="90" width="120" height="30" as="geometry" />
        </mxCell>
        <mxCell id="_eAnaMVm6EWIXQmlmc8g-8" value="" style="edgeStyle=orthogonalEdgeStyle;rounded=0;orthogonalLoop=1;jettySize=auto;html=1;" edge="1" parent="1" source="_eAnaMVm6EWIXQmlmc8g-6" target="_eAnaMVm6EWIXQmlmc8g-7">
          <mxGeometry relative="1" as="geometry" />
        </mxCell>
        <mxCell id="_eAnaMVm6EWIXQmlmc8g-11" value="" style="edgeStyle=orthogonalEdgeStyle;rounded=0;orthogonalLoop=1;jettySize=auto;html=1;startArrow=none;" edge="1" parent="1" source="_eAnaMVm6EWIXQmlmc8g-13">
          <mxGeometry relative="1" as="geometry">
            <mxPoint x="280" y="440" as="targetPoint" />
          </mxGeometry>
        </mxCell>
        <mxCell id="_eAnaMVm6EWIXQmlmc8g-7" value="保存内容" style="whiteSpace=wrap;html=1;" vertex="1" parent="1">
          <mxGeometry x="230" y="175" width="100" height="50" as="geometry" />
        </mxCell>
        <mxCell id="_eAnaMVm6EWIXQmlmc8g-9" value="Y" style="text;html=1;align=center;verticalAlign=middle;resizable=0;points=[];autosize=1;strokeColor=none;fillColor=none;" vertex="1" parent="1">
          <mxGeometry x="360" y="200" width="20" height="20" as="geometry" />
        </mxCell>
        <mxCell id="_eAnaMVm6EWIXQmlmc8g-14" value="" style="edgeStyle=orthogonalEdgeStyle;rounded=0;orthogonalLoop=1;jettySize=auto;html=1;" edge="1" parent="1" source="_eAnaMVm6EWIXQmlmc8g-12" target="_eAnaMVm6EWIXQmlmc8g-13">
          <mxGeometry relative="1" as="geometry" />
        </mxCell>
        <mxCell id="_eAnaMVm6EWIXQmlmc8g-19" value="" style="edgeStyle=elbowEdgeStyle;rounded=0;orthogonalLoop=1;jettySize=auto;html=1;exitX=0.5;exitY=1;exitDx=0;exitDy=0;" edge="1" parent="1" source="_eAnaMVm6EWIXQmlmc8g-13" target="_eAnaMVm6EWIXQmlmc8g-18">
          <mxGeometry relative="1" as="geometry">
            <Array as="points">
              <mxPoint x="280" y="650" />
            </Array>
          </mxGeometry>
        </mxCell>
        <mxCell id="_eAnaMVm6EWIXQmlmc8g-16" value="" style="endArrow=classic;html=1;rounded=0;edgeStyle=elbowEdgeStyle;entryX=0;entryY=0.75;entryDx=0;entryDy=0;exitX=0;exitY=0.5;exitDx=0;exitDy=0;" edge="1" parent="1" source="_eAnaMVm6EWIXQmlmc8g-13" target="_eAnaMVm6EWIXQmlmc8g-7">
          <mxGeometry width="50" height="50" relative="1" as="geometry">
            <mxPoint x="240" y="595" as="sourcePoint" />
            <mxPoint x="140" y="350" as="targetPoint" />
            <Array as="points">
              <mxPoint x="160" y="380" />
              <mxPoint x="110" y="390" />
              <mxPoint x="190" y="500" />
              <mxPoint x="120" y="480" />
            </Array>
          </mxGeometry>
        </mxCell>
        <mxCell id="_eAnaMVm6EWIXQmlmc8g-17" value="Y" style="text;html=1;align=center;verticalAlign=middle;resizable=0;points=[];autosize=1;strokeColor=none;fillColor=none;" vertex="1" parent="1">
          <mxGeometry x="170" y="430" width="20" height="20" as="geometry" />
        </mxCell>
        <mxCell id="_eAnaMVm6EWIXQmlmc8g-18" value="书籍下载完成，程序结束" style="ellipse;whiteSpace=wrap;html=1;rounded=0;" vertex="1" parent="1">
          <mxGeometry x="380" y="790" width="120" height="60" as="geometry" />
        </mxCell>
        <mxCell id="_eAnaMVm6EWIXQmlmc8g-25" value="" style="edgeStyle=orthogonalEdgeStyle;rounded=0;orthogonalLoop=1;jettySize=auto;html=1;" edge="1" parent="1" source="_eAnaMVm6EWIXQmlmc8g-22" target="_eAnaMVm6EWIXQmlmc8g-24">
          <mxGeometry relative="1" as="geometry" />
        </mxCell>
        <mxCell id="_eAnaMVm6EWIXQmlmc8g-23" value="N" style="text;html=1;align=center;verticalAlign=middle;resizable=0;points=[];autosize=1;strokeColor=none;fillColor=none;" vertex="1" parent="1">
          <mxGeometry x="520" y="200" width="20" height="20" as="geometry" />
        </mxCell>
        <mxCell id="_eAnaMVm6EWIXQmlmc8g-27" value="" style="edgeStyle=orthogonalEdgeStyle;rounded=0;orthogonalLoop=1;jettySize=auto;html=1;" edge="1" parent="1" source="_eAnaMVm6EWIXQmlmc8g-24" target="_eAnaMVm6EWIXQmlmc8g-26">
          <mxGeometry relative="1" as="geometry" />
        </mxCell>
        <mxCell id="_eAnaMVm6EWIXQmlmc8g-47" value="" style="edgeStyle=elbowEdgeStyle;rounded=0;orthogonalLoop=1;jettySize=auto;elbow=vertical;html=1;" edge="1" parent="1" source="_eAnaMVm6EWIXQmlmc8g-24" target="_eAnaMVm6EWIXQmlmc8g-46">
          <mxGeometry relative="1" as="geometry">
            <Array as="points">
              <mxPoint x="690" y="335" />
              <mxPoint x="670" y="530" />
            </Array>
          </mxGeometry>
        </mxCell>
        <mxCell id="_eAnaMVm6EWIXQmlmc8g-30" value="" style="edgeStyle=orthogonalEdgeStyle;rounded=0;orthogonalLoop=1;jettySize=auto;html=1;" edge="1" parent="1" source="_eAnaMVm6EWIXQmlmc8g-26" target="_eAnaMVm6EWIXQmlmc8g-29">
          <mxGeometry relative="1" as="geometry" />
        </mxCell>
        <mxCell id="_eAnaMVm6EWIXQmlmc8g-26" value="保存内容" style="whiteSpace=wrap;html=1;rounded=0;" vertex="1" parent="1">
          <mxGeometry x="395" y="310" width="90" height="50" as="geometry" />
        </mxCell>
        <mxCell id="_eAnaMVm6EWIXQmlmc8g-28" value="Y" style="text;html=1;align=center;verticalAlign=middle;resizable=0;points=[];autosize=1;strokeColor=none;fillColor=none;" vertex="1" parent="1">
          <mxGeometry x="520" y="340" width="20" height="20" as="geometry" />
        </mxCell>
        <mxCell id="_eAnaMVm6EWIXQmlmc8g-32" value="" style="edgeStyle=orthogonalEdgeStyle;rounded=0;orthogonalLoop=1;jettySize=auto;html=1;" edge="1" parent="1" source="_eAnaMVm6EWIXQmlmc8g-29" target="_eAnaMVm6EWIXQmlmc8g-31">
          <mxGeometry relative="1" as="geometry" />
        </mxCell>
        <mxCell id="_eAnaMVm6EWIXQmlmc8g-29" value="s+1&lt;br&gt;请求链接二" style="whiteSpace=wrap;html=1;rounded=0;" vertex="1" parent="1">
          <mxGeometry x="386.25" y="420" width="107.5" height="40" as="geometry" />
        </mxCell>
        <mxCell id="_eAnaMVm6EWIXQmlmc8g-31" value="code = 200" style="rhombus;whiteSpace=wrap;html=1;rounded=0;" vertex="1" parent="1">
          <mxGeometry x="400" y="520" width="80" height="80" as="geometry" />
        </mxCell>
        <mxCell id="_eAnaMVm6EWIXQmlmc8g-42" value="" style="endArrow=classic;html=1;rounded=0;edgeStyle=elbowEdgeStyle;exitX=0;exitY=0.5;exitDx=0;exitDy=0;entryX=0;entryY=0.5;entryDx=0;entryDy=0;" edge="1" parent="1" source="_eAnaMVm6EWIXQmlmc8g-31" target="_eAnaMVm6EWIXQmlmc8g-26">
          <mxGeometry width="50" height="50" relative="1" as="geometry">
            <mxPoint x="330" y="550" as="sourcePoint" />
            <mxPoint x="380" y="500" as="targetPoint" />
            <Array as="points">
              <mxPoint x="360" y="600" />
            </Array>
          </mxGeometry>
        </mxCell>
        <mxCell id="_eAnaMVm6EWIXQmlmc8g-43" value="Y" style="text;html=1;align=center;verticalAlign=middle;resizable=0;points=[];autosize=1;strokeColor=none;fillColor=none;" vertex="1" parent="1">
          <mxGeometry x="375" y="560" width="20" height="20" as="geometry" />
        </mxCell>
        <mxCell id="_eAnaMVm6EWIXQmlmc8g-44" value="" style="endArrow=classic;html=1;rounded=0;edgeStyle=elbowEdgeStyle;exitX=0.5;exitY=1;exitDx=0;exitDy=0;elbow=vertical;entryX=0.5;entryY=0;entryDx=0;entryDy=0;" edge="1" parent="1" source="_eAnaMVm6EWIXQmlmc8g-31" target="_eAnaMVm6EWIXQmlmc8g-18">
          <mxGeometry width="50" height="50" relative="1" as="geometry">
            <mxPoint x="330" y="690" as="sourcePoint" />
            <mxPoint x="280" y="790" as="targetPoint" />
            <Array as="points">
              <mxPoint x="440" y="770" />
              <mxPoint x="370" y="660" />
              <mxPoint x="370" y="840" />
            </Array>
          </mxGeometry>
        </mxCell>
        <mxCell id="_eAnaMVm6EWIXQmlmc8g-45" value="N" style="text;html=1;align=center;verticalAlign=middle;resizable=0;points=[];autosize=1;strokeColor=none;fillColor=none;" vertex="1" parent="1">
          <mxGeometry x="414" y="670" width="20" height="20" as="geometry" />
        </mxCell>
        <mxCell id="_eAnaMVm6EWIXQmlmc8g-49" value="" style="edgeStyle=elbowEdgeStyle;rounded=0;orthogonalLoop=1;jettySize=auto;elbow=vertical;html=1;" edge="1" parent="1" source="_eAnaMVm6EWIXQmlmc8g-46" target="_eAnaMVm6EWIXQmlmc8g-48">
          <mxGeometry relative="1" as="geometry" />
        </mxCell>
        <mxCell id="_eAnaMVm6EWIXQmlmc8g-46" value="请求链接三" style="whiteSpace=wrap;html=1;rounded=0;" vertex="1" parent="1">
          <mxGeometry x="715" y="315" width="70" height="40" as="geometry" />
        </mxCell>
        <mxCell id="_eAnaMVm6EWIXQmlmc8g-51" value="" style="edgeStyle=elbowEdgeStyle;rounded=0;orthogonalLoop=1;jettySize=auto;elbow=vertical;html=1;" edge="1" parent="1" source="_eAnaMVm6EWIXQmlmc8g-48" target="_eAnaMVm6EWIXQmlmc8g-50">
          <mxGeometry relative="1" as="geometry" />
        </mxCell>
        <mxCell id="_eAnaMVm6EWIXQmlmc8g-48" value="保存内容&lt;br&gt;s+1" style="whiteSpace=wrap;html=1;rounded=0;" vertex="1" parent="1">
          <mxGeometry x="690" y="410" width="120" height="40" as="geometry" />
        </mxCell>
        <mxCell id="_eAnaMVm6EWIXQmlmc8g-50" value="请求链接三，code = 200" style="rhombus;whiteSpace=wrap;html=1;rounded=0;" vertex="1" parent="1">
          <mxGeometry x="710" y="490" width="80" height="80" as="geometry" />
        </mxCell>
        <mxCell id="_eAnaMVm6EWIXQmlmc8g-55" value="" style="endArrow=classic;html=1;rounded=0;edgeStyle=elbowEdgeStyle;" edge="1" parent="1">
          <mxGeometry width="50" height="50" relative="1" as="geometry">
            <mxPoint x="790" y="530" as="sourcePoint" />
            <mxPoint x="810" y="430" as="targetPoint" />
            <Array as="points">
              <mxPoint x="830" y="480" />
              <mxPoint x="630" y="510" />
              <mxPoint x="580" y="740" />
            </Array>
          </mxGeometry>
        </mxCell>
        <mxCell id="_eAnaMVm6EWIXQmlmc8g-73" value="" style="edgeStyle=elbowEdgeStyle;rounded=0;orthogonalLoop=1;jettySize=auto;html=1;" edge="1" parent="1" source="_eAnaMVm6EWIXQmlmc8g-57" target="_eAnaMVm6EWIXQmlmc8g-72">
          <mxGeometry relative="1" as="geometry" />
        </mxCell>
        <mxCell id="_eAnaMVm6EWIXQmlmc8g-57" value="p+1&lt;br&gt;s=0" style="rounded=0;whiteSpace=wrap;html=1;" vertex="1" parent="1">
          <mxGeometry x="707.5" y="610" width="85" height="50" as="geometry" />
        </mxCell>
        <mxCell id="_eAnaMVm6EWIXQmlmc8g-6" value="请求链接一，&lt;br&gt;code = 200" style="rhombus;whiteSpace=wrap;html=1;" vertex="1" parent="1">
          <mxGeometry x="400" y="160" width="80" height="80" as="geometry" />
        </mxCell>
        <mxCell id="_eAnaMVm6EWIXQmlmc8g-58" value="" style="edgeStyle=orthogonalEdgeStyle;rounded=0;orthogonalLoop=1;jettySize=auto;html=1;endArrow=none;" edge="1" parent="1" source="_eAnaMVm6EWIXQmlmc8g-2" target="_eAnaMVm6EWIXQmlmc8g-6">
          <mxGeometry relative="1" as="geometry">
            <mxPoint x="440" y="120" as="sourcePoint" />
            <mxPoint x="440" y="310" as="targetPoint" />
          </mxGeometry>
        </mxCell>
        <mxCell id="_eAnaMVm6EWIXQmlmc8g-12" value="p+1,请求链接一" style="rounded=0;whiteSpace=wrap;html=1;" vertex="1" parent="1">
          <mxGeometry x="220" y="280" width="120" height="50" as="geometry" />
        </mxCell>
        <mxCell id="_eAnaMVm6EWIXQmlmc8g-63" value="" style="edgeStyle=orthogonalEdgeStyle;rounded=0;orthogonalLoop=1;jettySize=auto;html=1;endArrow=none;" edge="1" parent="1" source="_eAnaMVm6EWIXQmlmc8g-7" target="_eAnaMVm6EWIXQmlmc8g-12">
          <mxGeometry relative="1" as="geometry">
            <mxPoint x="280" y="225" as="sourcePoint" />
            <mxPoint x="280" y="440" as="targetPoint" />
          </mxGeometry>
        </mxCell>
        <mxCell id="_eAnaMVm6EWIXQmlmc8g-13" value="code = 200" style="rhombus;whiteSpace=wrap;html=1;rounded=0;" vertex="1" parent="1">
          <mxGeometry x="240" y="390" width="80" height="80" as="geometry" />
        </mxCell>
        <mxCell id="_eAnaMVm6EWIXQmlmc8g-64" value="" style="edgeStyle=orthogonalEdgeStyle;rounded=0;orthogonalLoop=1;jettySize=auto;html=1;startArrow=none;endArrow=none;" edge="1" parent="1" source="_eAnaMVm6EWIXQmlmc8g-12" target="_eAnaMVm6EWIXQmlmc8g-13">
          <mxGeometry relative="1" as="geometry">
            <mxPoint x="280" y="330" as="sourcePoint" />
            <mxPoint x="280" y="440" as="targetPoint" />
          </mxGeometry>
        </mxCell>
        <mxCell id="_eAnaMVm6EWIXQmlmc8g-65" value="N" style="text;html=1;align=center;verticalAlign=middle;resizable=0;points=[];autosize=1;strokeColor=none;fillColor=none;" vertex="1" parent="1">
          <mxGeometry x="280" y="510" width="20" height="20" as="geometry" />
        </mxCell>
        <mxCell id="_eAnaMVm6EWIXQmlmc8g-68" style="edgeStyle=elbowEdgeStyle;rounded=0;orthogonalLoop=1;jettySize=auto;html=1;" edge="1" parent="1" source="_eAnaMVm6EWIXQmlmc8g-22">
          <mxGeometry relative="1" as="geometry">
            <mxPoint x="550" y="200" as="targetPoint" />
            <Array as="points">
              <mxPoint x="540" y="200" />
            </Array>
          </mxGeometry>
        </mxCell>
        <mxCell id="_eAnaMVm6EWIXQmlmc8g-22" value="请求链接二" style="rounded=0;whiteSpace=wrap;html=1;" vertex="1" parent="1">
          <mxGeometry x="550" y="170" width="110" height="50" as="geometry" />
        </mxCell>
        <mxCell id="_eAnaMVm6EWIXQmlmc8g-67" value="" style="edgeStyle=orthogonalEdgeStyle;rounded=0;orthogonalLoop=1;jettySize=auto;html=1;endArrow=none;" edge="1" parent="1" source="_eAnaMVm6EWIXQmlmc8g-6">
          <mxGeometry relative="1" as="geometry">
            <mxPoint x="480" y="200" as="sourcePoint" />
            <mxPoint x="540" y="200" as="targetPoint" />
          </mxGeometry>
        </mxCell>
        <mxCell id="_eAnaMVm6EWIXQmlmc8g-24" value="code = 200" style="rhombus;whiteSpace=wrap;html=1;rounded=0;" vertex="1" parent="1">
          <mxGeometry x="565" y="295" width="80" height="80" as="geometry" />
        </mxCell>
        <mxCell id="_eAnaMVm6EWIXQmlmc8g-69" value="" style="edgeStyle=orthogonalEdgeStyle;rounded=0;orthogonalLoop=1;jettySize=auto;html=1;startArrow=none;endArrow=none;" edge="1" parent="1" source="_eAnaMVm6EWIXQmlmc8g-22" target="_eAnaMVm6EWIXQmlmc8g-24">
          <mxGeometry relative="1" as="geometry">
            <mxPoint x="610" y="225" as="sourcePoint" />
            <mxPoint x="590" y="400" as="targetPoint" />
          </mxGeometry>
        </mxCell>
        <mxCell id="_eAnaMVm6EWIXQmlmc8g-70" value="" style="endArrow=classic;html=1;rounded=0;exitX=0.5;exitY=1;exitDx=0;exitDy=0;entryX=0.5;entryY=0;entryDx=0;entryDy=0;" edge="1" parent="1" source="_eAnaMVm6EWIXQmlmc8g-50" target="_eAnaMVm6EWIXQmlmc8g-57">
          <mxGeometry width="50" height="50" relative="1" as="geometry">
            <mxPoint x="440" y="460" as="sourcePoint" />
            <mxPoint x="490" y="410" as="targetPoint" />
          </mxGeometry>
        </mxCell>
        <mxCell id="_eAnaMVm6EWIXQmlmc8g-71" value="&lt;blockquote style=&quot;margin: 0 0 0 40px; border: none; padding: 0px;&quot;&gt;N&lt;/blockquote&gt;" style="text;html=1;align=center;verticalAlign=middle;resizable=0;points=[];autosize=1;strokeColor=none;fillColor=none;" vertex="1" parent="1">
          <mxGeometry x="630" y="340" width="60" height="20" as="geometry" />
        </mxCell>
        <mxCell id="_eAnaMVm6EWIXQmlmc8g-75" value="" style="edgeStyle=elbowEdgeStyle;rounded=0;orthogonalLoop=1;jettySize=auto;html=1;" edge="1" parent="1" source="_eAnaMVm6EWIXQmlmc8g-72" target="_eAnaMVm6EWIXQmlmc8g-74">
          <mxGeometry relative="1" as="geometry" />
        </mxCell>
        <mxCell id="_eAnaMVm6EWIXQmlmc8g-72" value="请求链接三，code = 200" style="rhombus;whiteSpace=wrap;html=1;rounded=0;" vertex="1" parent="1">
          <mxGeometry x="545" y="595" width="80" height="80" as="geometry" />
        </mxCell>
        <mxCell id="_eAnaMVm6EWIXQmlmc8g-74" value="请求链接一，code = 200" style="rhombus;whiteSpace=wrap;html=1;rounded=0;" vertex="1" parent="1">
          <mxGeometry x="545" y="755" width="80" height="80" as="geometry" />
        </mxCell>
        <mxCell id="_eAnaMVm6EWIXQmlmc8g-76" value="N" style="text;html=1;align=center;verticalAlign=middle;resizable=0;points=[];autosize=1;strokeColor=none;fillColor=none;" vertex="1" parent="1">
          <mxGeometry x="580" y="700" width="20" height="20" as="geometry" />
        </mxCell>
        <mxCell id="_eAnaMVm6EWIXQmlmc8g-78" value="Y" style="endArrow=classic;html=1;rounded=0;" edge="1" parent="1" target="_eAnaMVm6EWIXQmlmc8g-80">
          <mxGeometry relative="1" as="geometry">
            <mxPoint x="625" y="794.5" as="sourcePoint" />
            <mxPoint x="725" y="794.5" as="targetPoint" />
          </mxGeometry>
        </mxCell>
        <mxCell id="_eAnaMVm6EWIXQmlmc8g-81" style="edgeStyle=orthogonalEdgeStyle;rounded=0;orthogonalLoop=1;jettySize=auto;html=1;entryX=0.61;entryY=0.987;entryDx=0;entryDy=0;entryPerimeter=0;" edge="1" parent="1" source="_eAnaMVm6EWIXQmlmc8g-80" target="_eAnaMVm6EWIXQmlmc8g-57">
          <mxGeometry relative="1" as="geometry" />
        </mxCell>
        <mxCell id="_eAnaMVm6EWIXQmlmc8g-80" value="保存内容，" style="rounded=0;whiteSpace=wrap;html=1;" vertex="1" parent="1">
          <mxGeometry x="707.5" y="780" width="105" height="30" as="geometry" />
        </mxCell>
        <mxCell id="_eAnaMVm6EWIXQmlmc8g-82" value="" style="endArrow=classic;html=1;rounded=0;edgeStyle=orthogonalEdgeStyle;entryX=0.5;entryY=1;entryDx=0;entryDy=0;exitX=0.5;exitY=1;exitDx=0;exitDy=0;" edge="1" parent="1" source="_eAnaMVm6EWIXQmlmc8g-74" target="_eAnaMVm6EWIXQmlmc8g-18">
          <mxGeometry relative="1" as="geometry">
            <mxPoint x="540" y="795" as="sourcePoint" />
            <mxPoint x="280" y="620" as="targetPoint" />
            <Array as="points">
              <mxPoint x="585" y="880" />
              <mxPoint x="440" y="880" />
            </Array>
          </mxGeometry>
        </mxCell>
        <mxCell id="_eAnaMVm6EWIXQmlmc8g-83" value="N" style="edgeLabel;resizable=0;html=1;align=center;verticalAlign=middle;" connectable="0" vertex="1" parent="_eAnaMVm6EWIXQmlmc8g-82">
          <mxGeometry relative="1" as="geometry" />
        </mxCell>
        <mxCell id="_eAnaMVm6EWIXQmlmc8g-84" value="" style="endArrow=classic;html=1;rounded=0;exitX=0.5;exitY=0;exitDx=0;exitDy=0;entryX=0;entryY=0.5;entryDx=0;entryDy=0;edgeStyle=orthogonalEdgeStyle;" edge="1" parent="1" source="_eAnaMVm6EWIXQmlmc8g-72" target="_eAnaMVm6EWIXQmlmc8g-48">
          <mxGeometry width="50" height="50" relative="1" as="geometry">
            <mxPoint x="440" y="610" as="sourcePoint" />
            <mxPoint x="490" y="560" as="targetPoint" />
          </mxGeometry>
        </mxCell>
        <mxCell id="_eAnaMVm6EWIXQmlmc8g-85" value="N" style="text;html=1;align=center;verticalAlign=middle;resizable=0;points=[];autosize=1;strokeColor=none;fillColor=none;" vertex="1" parent="1">
          <mxGeometry x="750" y="580" width="20" height="20" as="geometry" />
        </mxCell>
        <mxCell id="_eAnaMVm6EWIXQmlmc8g-86" value="Y" style="text;html=1;align=center;verticalAlign=middle;resizable=0;points=[];autosize=1;strokeColor=none;fillColor=none;" vertex="1" parent="1">
          <mxGeometry x="580" y="530" width="20" height="20" as="geometry" />
        </mxCell>
        <mxCell id="_eAnaMVm6EWIXQmlmc8g-87" value="Y" style="text;html=1;align=center;verticalAlign=middle;resizable=0;points=[];autosize=1;strokeColor=none;fillColor=none;" vertex="1" parent="1">
          <mxGeometry x="810" y="470" width="20" height="20" as="geometry" />
        </mxCell>
      </root>
    </mxGraphModel>
  </diagram>
</mxfile>
